<?xml version="1.0" encoding="UTF-8"?>
<svg xmlns="http://www.w3.org/2000/svg" version="1.1" viewBox="0 0 48 48">
  <!-- Generator: Adobe Illustrator 28.7.1, SVG Export Plug-In . SVG Version: 1.2.0 Build 142)  -->
  <g>
    <g id="OUTLINE">
      <path d="M40,5H14c-.27002,0-.52002.10999-.71002.28998L5.28998,13.28998c-.17999.19-.28998.44-.28998.71002v26c0,1.64996,1.34998,3,3,3h32c1.65002,0,3-1.35004,3-3V8c0-1.65002-1.34998-3-3-3ZM14,15c.54999,0,1-.45001,1-1v-3h7v5c0,.54999.45001,1,1,1h4c.54999,0,1-.45001,1-1v-5h2v6c0,.54999.45001,1,1,1h3c.54999,0,1-.45001,1-1s-.45001-1-1-1h-2v-5h5v9h-8c-.54999,0-1,.45001-1,1v3c0,.54999.45001,1,1,1s1-.45001,1-1v-2h7v7h-7c-.54999,0-1,.45001-1,1v7h-6v-8h1c.54999,0,1-.45001,1-1s-.45001-1-1-1h-4c-.54999,0-1,.45001-1,1s.45001,1,1,1h1v8h-2v-5c0-.54999-.45001-1-1-1h-3v-7c0-.54999-.45001-1-1-1h-3v-8h3ZM24,15v-4h2v4h-2ZM37,31v6h-6v-6h6ZM17,33v4h-6v-4h6ZM11,31v-6h2v6h-2ZM13,8.40997v4.59003h-4.59003l4.59003-4.59003ZM41,40c0,.54999-.45001,1-1,1H8c-.54999,0-1-.45001-1-1V15h2v23c0,.54999.45001,1,1,1h28c.54999,0,1-.45001,1-1V10c0-.54999-.45001-1-1-1H15v-2h25c.54999,0,1,.45001,1,1v32Z"/>
    </g>
  </g>
</svg>