<?xml version="1.0" encoding="UTF-8"?>
<svg xmlns="http://www.w3.org/2000/svg" version="1.1" viewBox="0 0 48 48">
  <!-- Generator: Adobe Illustrator 28.7.1, SVG Export Plug-In . SVG Version: 1.2.0 Build 142)  -->
  <g>
    <g id="OUTLINE">
      <g>
        <path d="M40,9h-1v-3c0-.54999-.45001-1-1-1s-1,.45001-1,1v3h-2v-3c0-.54999-.45001-1-1-1s-1,.45001-1,1v3h-10v-2c0-.54999-.45001-1-1-1h-4c-.54999,0-1,.45001-1,1v2h-2v-2c0-.54999-.45001-1-1-1h-4c-.54999,0-1,.45001-1,1v2h-1c-1.65002,0-3,1.34998-3,3v28c0,1.64996,1.34998,3,3,3h32c1.65002,0,3-1.35004,3-3V12c0-1.65002-1.34998-3-3-3ZM19,8h2v4h-2v-4ZM11,8h2v4h-2v-4ZM41,40c0,.54999-.45001,1-1,1H8c-.54999,0-1-.45001-1-1V12c0-.54999.45001-1,1-1h1v2c0,.54999.45001,1,1,1h4c.54999,0,1-.45001,1-1v-2h2v2c0,.54999.45001,1,1,1h4c.54999,0,1-.45001,1-1v-2h17c.54999,0,1,.45001,1,1v28Z"/>
        <path d="M17,30c0,.55225.44727,1,1,1h12c.55273,0,1-.44775,1-1v-1h2c.55273,0,1-.44775,1-1s-.44727-1-1-1h-2v-2h2c.55273,0,1-.44775,1-1s-.44727-1-1-1h-2v-2h2c.55273,0,1-.44775,1-1s-.44727-1-1-1h-2v-1c0-.55225-.44727-1-1-1h-12c-.55273,0-1,.44775-1,1v1h-2c-.55273,0-1,.44775-1,1s.44727,1,1,1h2v2h-2c-.55273,0-1,.44775-1,1s.44727,1,1,1h2v2h-2c-.55273,0-1,.44775-1,1s.44727,1,1,1h2v1ZM19,19h10v10h-10v-10Z"/>
        <path d="M26,21h-4c-.55273,0-1,.44775-1,1v4c0,.55225.44727,1,1,1h4c.55273,0,1-.44775,1-1v-4c0-.55225-.44727-1-1-1ZM25,25h-2v-2h2v2Z"/>
        <path d="M12,33c-1.6543,0-3,1.3457-3,3s1.3457,3,3,3,3-1.3457,3-3-1.3457-3-3-3ZM12,37c-.55176,0-1-.44873-1-1s.44824-1,1-1,1,.44873,1,1-.44824,1-1,1Z"/>
        <path d="M20,33c-1.6543,0-3,1.3457-3,3s1.3457,3,3,3,3-1.3457,3-3-1.3457-3-3-3ZM20,37c-.55176,0-1-.44873-1-1s.44824-1,1-1,1,.44873,1,1-.44824,1-1,1Z"/>
        <path d="M38,37h-8c-.55273,0-1,.44775-1,1s.44727,1,1,1h8c.55273,0,1-.44775,1-1s-.44727-1-1-1Z"/>
        <path d="M38,33h-6c-.55273,0-1,.44775-1,1s.44727,1,1,1h6c.55273,0,1-.44775,1-1s-.44727-1-1-1Z"/>
      </g>
    </g>
  </g>
</svg>