<?xml version="1.0" encoding="UTF-8"?>
<svg xmlns="http://www.w3.org/2000/svg" version="1.1" viewBox="0 0 48 48">
  <!-- Generator: Adobe Illustrator 28.7.1, SVG Export Plug-In . SVG Version: 1.2.0 Build 142)  -->
  <g>
    <g id="OUTLINE">
      <g>
        <path d="M42,23h-1v-15c0-.35004-.17999-.67004-.46997-.85004-.30005-.17999-.67004-.19995-.98004-.03998l-8,4c-.33997.15997-.54999.51001-.54999.89001v11h-2v-3c0-.54999-.45001-1-1-1h-.07001l-.85999-12h.92999c.54999,0,1-.45001,1-1s-.45001-1-1-1h-8c-.54999,0-1,.45001-1,1s.45001,1,1,1h.92999l-.85999,12h-.07001c-.54999,0-1,.45001-1,1v3h-2v-3c0-.54999-.45001-1-1-1h-.07001l-.85999-12h.92999c.54999,0,1-.45001,1-1s-.45001-1-1-1h-8c-.54999,0-1,.45001-1,1s.45001,1,1,1h.92999l-.85999,12h-.07001c-.54999,0-1,.45001-1,1v3h-1c-.54999,0-1,.45001-1,1v4c0,.54999.45001,1,1,1h1v11c0,1.64996,1.34998,3,3,3h28c1.65002,0,3-1.35004,3-3v-11h1c.54999,0,1-.45001,1-1v-4c0-.54999-.45001-1-1-1ZM33,12.62l6-3v5.38h-6v-2.38ZM33,17h6v2h-6v-2ZM33,21h6v2h-6v-2ZM22.92999,7h2.14001l.85999,12h-3.85999l.85999-12ZM21,21h6v2h-6v-2ZM10.92999,7h2.14001l.85999,12h-3.85999l.85999-12ZM9,21h6v2h-6v-2ZM25,41h-2v-8h2v8ZM39,40c0,.54999-.45001,1-1,1h-11v-9c0-.54999-.45001-1-1-1h-4c-.54999,0-1,.45001-1,1v9h-11c-.54999,0-1-.45001-1-1v-11h30v11ZM41,27H7v-2h34v2Z"/>
        <path d="M12,39h6c.55225,0,1-.44775,1-1v-6c0-.55225-.44775-1-1-1h-6c-.55225,0-1,.44775-1,1v6c0,.55225.44775,1,1,1ZM13,33h4v4h-4v-4Z"/>
        <path d="M30,39h6c.55225,0,1-.44775,1-1v-6c0-.55225-.44775-1-1-1h-6c-.55225,0-1,.44775-1,1v6c0,.55225.44775,1,1,1ZM31,33h4v4h-4v-4Z"/>
      </g>
    </g>
  </g>
</svg>