<?xml version="1.0" encoding="UTF-8"?>
<svg xmlns="http://www.w3.org/2000/svg" version="1.1" viewBox="0 0 48 48">
  <!-- Generator: Adobe Illustrator 28.7.1, SVG Export Plug-In . SVG Version: 1.2.0 Build 142)  -->
  <g>
    <g id="OUTLINE">
      <g>
        <path d="M24,17c-1.6543,0-3,1.3457-3,3s1.3457,3,3,3,3-1.3457,3-3-1.3457-3-3-3ZM24,21c-.55127,0-1-.44873-1-1s.44873-1,1-1,1,.44873,1,1-.44873,1-1,1Z"/>
        <path d="M22.98193,32.70557c.05127-.26562-.00781-.54053-.16309-.76221l-2.03027-2.896c-.31006-.44238-.91553-.55908-1.36768-.26172l-1.22021.80078c-.12842-.07178-.25928-.13916-.39258-.20264v-1.38379c0-.55225-.44775-1-1-1h-3.61621c-.55225,0-1,.44775-1,1v1.38379c-.1333.06348-.26416.13086-.39258.20264l-1.22021-.80078c-.45117-.29688-1.05713-.18066-1.36768.26172l-2.03027,2.896c-.15527.22168-.21436.49658-.16309.76221.05078.26562.20703.49951.43311.64795l1.18945.78125c-.04297.29053-.06494.57959-.06494.86523s.02197.57471.06494.86523l-1.18945.78125c-.22607.14844-.38232.38232-.43311.64795-.05127.26562.00781.54053.16309.76221l2.03027,2.896c.31006.44238.91455.55713,1.36768.26172l1.22021-.80078c.12842.07178.25928.13916.39258.20264v1.38379c0,.55225.44775,1,1,1h3.61621c.55225,0,1-.44775,1-1v-1.38379c.1333-.06348.26416-.13086.39258-.20264l1.22021.80078c.45215.29639,1.05762.18018,1.36768-.26172l2.03027-2.896c.15527-.22168.21436-.49658.16309-.76221-.05078-.26562-.20703-.49951-.43311-.64795l-1.18945-.78125c.04297-.29053.06494-.57959.06494-.86523s-.02197-.57471-.06494-.86523l1.18945-.78125c.22607-.14844.38232-.38232.43311-.64795ZM19.27686,33.93262c.09766.3623.14746.72168.14746,1.06738s-.0498.70508-.14746,1.06738c-.11279.41699.05518.85938.4165,1.09668l.896.58838-.88184,1.25781-.94727-.62207c-.3457-.22705-.79395-.21826-1.12988.02197-.3501.25-.73584.44775-1.14648.58887-.4043.13818-.67578.51855-.67578.9458v1.05518h-1.61621v-1.05518c0-.42725-.27148-.80762-.67578-.9458-.41064-.14111-.79639-.33887-1.14648-.58887-.33643-.23926-.78418-.24756-1.12988-.02197l-.94727.62207-.88184-1.25781.896-.58838c.36133-.2373.5293-.67969.4165-1.09668-.09766-.3623-.14746-.72168-.14746-1.06738s.0498-.70508.14746-1.06738c.11279-.41699-.05518-.85938-.4165-1.09668l-.896-.58838.88184-1.25781.94727.62207c.34473.22607.79248.21729,1.12988-.02197.3501-.25.73584-.44775,1.14648-.58887.4043-.13818.67578-.51855.67578-.9458v-1.05518h1.61621v1.05518c0,.42725.27148.80762.67578.9458.41064.14111.79639.33887,1.14648.58887.33691.24023.78516.24902,1.12988.02197l.94727-.62207.88184,1.25781-.896.58838c-.36133.2373-.5293.67969-.4165,1.09668Z"/>
        <path d="M15,32c-1.6543,0-3,1.3457-3,3s1.3457,3,3,3,3-1.3457,3-3-1.3457-3-3-3ZM15,36c-.55127,0-1-.44873-1-1s.44873-1,1-1,1,.44873,1,1-.44873,1-1,1Z"/>
        <path d="M40.98193,32.70557c.05127-.26562-.00781-.54053-.16309-.76221l-2.03027-2.896c-.31104-.44238-.91699-.55908-1.36768-.26172l-1.22021.80078c-.12842-.07178-.25928-.13916-.39258-.20264v-1.38379c0-.55225-.44775-1-1-1h-3.61621c-.55225,0-1,.44775-1,1v1.38379c-.1333.06348-.26416.13086-.39258.20264l-1.22021-.80078c-.45166-.29688-1.05713-.18066-1.36768.26172l-2.03027,2.896c-.15527.22168-.21436.49658-.16309.76221.05078.26562.20703.49951.43311.64795l1.18945.78125c-.04297.29053-.06494.57959-.06494.86523s.02197.57471.06494.86523l-1.18945.78125c-.22607.14844-.38232.38232-.43311.64795-.05127.26562.00781.54053.16309.76221l2.03027,2.896c.30957.44238.91504.55713,1.36768.26172l1.22021-.80078c.12842.07178.25928.13916.39258.20264v1.38379c0,.55225.44775,1,1,1h3.61621c.55225,0,1-.44775,1-1v-1.38379c.1333-.06348.26416-.13086.39258-.20264l1.22021.80078c.45166.29639,1.05762.18018,1.36768-.26172l2.03027-2.896c.15527-.22168.21436-.49658.16309-.76221-.05078-.26562-.20703-.49951-.43311-.64795l-1.18945-.78125c.04297-.29053.06494-.57959.06494-.86523s-.02197-.57471-.06494-.86523l1.18945-.78125c.22607-.14844.38232-.38232.43311-.64795ZM37.27686,33.93262c.09766.3623.14746.72168.14746,1.06738s-.0498.70508-.14746,1.06738c-.11279.41699.05518.85938.4165,1.09668l.896.58838-.88184,1.25781-.94727-.62207c-.3457-.22705-.79297-.21826-1.12988.02197-.3501.25-.73584.44775-1.14648.58887-.4043.13818-.67578.51855-.67578.9458v1.05518h-1.61621v-1.05518c0-.42725-.27148-.80762-.67578-.9458-.41064-.14111-.79639-.33887-1.14648-.58887-.33643-.23926-.78418-.24756-1.12988-.02197l-.94727.62207-.88184-1.25781.896-.58838c.36133-.2373.5293-.67969.4165-1.09668-.09766-.3623-.14746-.72168-.14746-1.06738s.0498-.70508.14746-1.06738c.11279-.41699-.05518-.85938-.4165-1.09668l-.896-.58838.88184-1.25781.94727.62207c.34473.22607.79248.21729,1.12988-.02197.3501-.25.73584-.44775,1.14648-.58887.4043-.13818.67578-.51855.67578-.9458v-1.05518h1.61621v1.05518c0,.42725.27148.80762.67578.9458.41064.14111.79639.33887,1.14648.58887.33789.24023.78516.24902,1.12988.02197l.94727-.62207.88184,1.25781-.896.58838c-.36133.2373-.5293.67969-.4165,1.09668Z"/>
        <path d="M33,32c-1.6543,0-3,1.3457-3,3s1.3457,3,3,3,3-1.3457,3-3-1.3457-3-3-3ZM33,36c-.55127,0-1-.44873-1-1s.44873-1,1-1,1,.44873,1,1-.44873,1-1,1Z"/>
        <path d="M42,18h-3.16998c-.29999-.73004-.65002-1.45001-1.04999-2.13l1.77997-1.77002c.17999-.19.28998-.44.28998-.70996,0-.27002-.10999-.52002-.28998-.71002l-4.23999-4.23999c-.38-.37-1.03998-.37-1.41998,0l-1.78003,1.77997c-1.29999-.76996-2.67999-1.33997-4.12-1.71997v-2.5c0-.54999-.45001-1-1-1h-6c-.54999,0-1,.45001-1,1v2.5c-1.44.38-2.82001.95001-4.12,1.71997l-1.78003-1.77997c-.19-.17999-.44-.29004-.70996-.29004-.27002,0-.52002.11005-.71002.29004l-4.23999,4.23999c-.17999.19-.28998.44-.28998.71002,0,.26996.10999.51996.28998.70996l1.77997,1.77002c-.39996.67999-.75,1.39996-1.04999,2.13h-3.16998c-.54999,0-1,.45001-1,1v5c0,.54999.45001,1,1,1h11.53998l.67004.95001c.31.44.91998.56,1.37.25995l1.21997-.79999c.13.08002.26001.14001.39001.21002v1.38c0,.54999.45001,1,1,1h3.62c.54999,0,1-.45001,1-1v-1.38c.13-.07001.26001-.13.39001-.21002l1.21997.79999c.45001.30005,1.06.19,1.37-.25995l.67004-.95001h11.53998c.54999,0,1-.45001,1-1v-5c0-.54999-.45001-1-1-1ZM28.28003,18.92999c.08997.35999.13995.71997.13995,1.07001,0,.34998-.04999.70996-.13995,1.07001-.12006.40997.04999.85999.40997,1.08997l.90002.59003-.88,1.26001-.95001-.62c-.34003-.23004-.79004-.22003-1.13.01996-.34998.25-.73999.45001-1.15002.59003-.39996.14001-.66998.51996-.66998.94v1.06h-1.62v-1.06c0-.42004-.27002-.79999-.66998-.94-.41003-.14001-.80005-.34003-1.15002-.59003-.33997-.23999-.78998-.25-1.13-.01996l-.95001.62-.88-1.26001.90002-.59003c.35999-.22998.53003-.67999.40997-1.08997-.08997-.36005-.13995-.72003-.13995-1.07001,0-.35004.04999-.71002.13995-1.07001.12006-.41003-.04999-.85999-.40997-1.09003l-.90002-.58997.88-1.26001.95001.62c.34003.22998.79004.21997,1.13-.02002.34998-.25.73999-.44995,1.15002-.58997.39996-.14001.66998-.52002.66998-.94v-1.06h1.62v1.06c0,.41998.27002.79999.66998.94.41003.14001.80005.33997,1.15002.58997.33997.23999.78998.25,1.13.02002l.95001-.62.88,1.26001-.90002.58997c-.35999.23004-.53003.67999-.40997,1.09003ZM41,23h-9.15997c.12994-.21002.19-.46002.13995-.71002-.04999-.26001-.20996-.5-.42999-.64001l-1.19-.77997c.04004-.29999.06-.58002.06-.87,0-.29004-.01996-.57001-.06-.87l1.19-.78003c.22003-.14001.38-.38.42999-.64001.05005-.26996-.01001-.53998-.15997-.76996l-2.03003-2.89001c-.31-.45001-.91998-.56-1.37-.26001l-1.21997.79999c-.13-.07996-.26001-.13995-.39001-.20996v-1.38c0-.54999-.45001-1-1-1h-3.62c-.54999,0-1,.45001-1,1v1.38c-.13.07001-.26001.13-.39001.20996l-1.21997-.79999c-.45001-.29999-1.06-.19-1.37.26001l-2.03003,2.89001c-.14996.22998-.21002.5-.15997.76996.04999.26001.20996.5.42999.64001l1.19.78003c-.04004.29999-.06.57996-.06.87,0,.28998.01996.57001.06.87l-1.19.77997c-.22003.14001-.38.38-.42999.64001-.05005.25.01001.5.13995.71002H7v-3h2.85999c.42004,0,.79999-.27002.94-.67004.38-1.06995.90002-2.09998,1.52002-3.04999.07001-.08997.10999-.19.13-.28998.01001-.03998.01001-.07001.01996-.09998.01001-.05005.02002-.11005.02002-.16003,0-.02002-.01001-.02997-.01001-.04999,0-.08002-.01996-.15002-.03998-.22998-.02002-.04004-.02002-.08002-.03998-.12006-.05005-.10999-.11005-.21997-.20001-.31l-1.64001-1.62994,2.83002-2.83002,1.63,1.64001c.33997.32996.85999.38995,1.26001.12994,1.51996-1.00995,3.17999-1.68994,4.91998-2.04999.46997-.09998.79999-.51001.79999-.97998v-2.29999h4v2.29999c0,.46997.33002.88.79999.97998,1.73999.36005,3.40002,1.04004,4.91998,2.04999.40002.26001.92004.20001,1.26001-.12994l1.63-1.64001,2.83002,2.83002-1.64001,1.62994c-.08997.09003-.14996.20001-.20001.31-.01996.04004-.01996.08002-.03998.12006-.02002.07996-.03998.14996-.03998.22998,0,.02002-.01001.02997-.01001.04999,0,.04999.01001.10999.02002.16003.00995.02997.00995.06.01996.09998.02002.09998.06.20001.13.28998.62.95001,1.14001,1.98004,1.52002,3.04999.14001.40002.51996.67004.94.67004h2.85999v3Z"/>
      </g>
    </g>
  </g>
</svg>