<?xml version="1.0" encoding="UTF-8"?>
<svg xmlns="http://www.w3.org/2000/svg" version="1.1" viewBox="0 0 48 48">
  <!-- Generator: Adobe Illustrator 28.7.1, SVG Export Plug-In . SVG Version: 1.2.0 Build 142)  -->
  <g>
    <g id="OUTLINE">
      <g>
        <path d="M19,27.00116h-2v-11.99915h1c.31,0,.59998-.14001.78998-.38.19-.24994.25-.55994.17999-.85992l-2-7.99939c-.10999-.45001-.50995-.75995-.96997-.75995h-4c-.46002,0-.85999.30994-.96997.75995l-2,7.99939c-.07001.29999-.01001.60999.17999.85992.19.23999.47998.38.78998.38h1v11.99915h-2c-.34998,0-.66998.17993-.84998.46991-.18005.29999-.20001.66998-.04004.97998l1.89001,3.78967v6.75952c0,2.20984,1.78998,3.99976,4,3.99976s4-1.78992,4-3.99976v-6.75952l1.89001-3.78967c.15997-.31.14001-.67999-.04004-.97998-.17999-.28998-.5-.46991-.84998-.46991ZM12.78003,7.00256h2.43994l1.5,5.99957h-.71997c-.54999,0-1,.45001-1,.99994v12.99908h-2v-12.99908c0-.54993-.45001-.99994-1-.99994h-.71997l1.5-5.99957ZM16,39.00024c0,1.09991-.90002,1.99988-2,1.99988s-2-.89996-2-1.99988v-5.99951h4v5.99951ZM16.38,31.00085h-4.76001l-1-1.99988h6.76001l-1,1.99988Z"/>
        <path d="M34.17999,26.57117l.69-17.36871c.09003-2.21991-1.56-4.09973-3.69-4.19971-1.08002-.04004-2.14996.35992-2.91998,1.12988-.77002.75995-1.17999,1.81989-1.14001,2.90979l.70001,17.52875c-3.46002,1.27991-5.82001,4.54968-5.82001,8.20935,0,3.59979,2.21002,6.7995,5.63,8.14948.31.12.65997.08002.92999-.10004.28003-.18994.44-.49994.44-.8299v-5.5896l1.40997-1.40991h1.18005l1.40997,1.40991v5.5896c0,.32996.15997.63995.44.8299.27161.1842.62592.22009.92999.10004,3.41998-1.34998,5.63-4.54968,5.63-8.14948,0-3.65967-2.35999-6.92944-5.82001-8.20935ZM35,40.35016v-4.34967c0-.27002-.10999-.51996-.28998-.70996l-2-1.99988c-.19-.17999-.44-.28992-.71002-.28992h-2c-.27002,0-.52002.10992-.71002.28992l-2,1.99988c-.17999.19-.28998.43994-.28998.70996v4.34967c-1.85999-1.24994-3-3.30975-3-5.56964,0-3.01971,2.09998-5.70953,5.10999-6.51947.45001-.12.76001-.53998.73999-1.00995l-.72998-18.2887c-.02002-.53992.16998-1.03992.54999-1.40985.38-.38.88-.58002,1.42004-.54999,1.00995.04999,1.82996,1.0199,1.77997,2.11987l-.71997,18.12866c-.02002.46997.28998.88995.73999,1.00995,3.01001.80994,5.10999,3.49976,5.10999,6.51947,0,2.25989-1.14001,4.3197-3,5.56964Z"/>
      </g>
    </g>
  </g>
</svg>